USFL
nRows=128
nColumns=2
inDegrees=yes
endheader
time	soleus_r	
2.125	 52.195328	
2.1875	 52.092967	
2.25	 52.055540	
2.3125	 52.039145	
2.375	 52.047546	
2.4375	 52.002523	
2.5	 52.091029	
2.5625	 52.064547	
2.625	 52.135018	
2.6875	 52.138336	
2.75	 52.126213	
2.8125	 52.088108	
2.875	 52.057317	
2.9375	 52.039296	
3	 52.060089	
3.0625	 52.077455	
3.125	 52.052077	
3.1875	 52.026880	
3.25	 51.989697	
3.3125	 51.993897	
3.375	 52.023315	
3.4375	 52.049983	
3.5	 52.072633	
3.5625	 52.079790	
3.625	 52.025096	
3.6875	 51.933192	
3.75	 51.993178	
3.8125	 51.940915	
3.875	 51.843085	
3.9375	 51.816250	
4	 51.886684	
4.0625	 51.946933	
4.125	 51.908454	
4.1875	 51.858566	
4.25	 51.791332	
4.3125	 51.843872	
4.375	 51.858426	
4.4375	 51.889025	
4.5	 51.898177	
4.5625	 51.994810	
4.625	 52.061672	
4.6875	 52.067766	
4.75	 51.887569	
4.8125	 51.551609	
4.875	 51.647700	
4.9375	 50.957862	
5	 40.522864	
5.0625	 37.828310	
5.125	 37.601194	
5.1875	 36.092403	
5.25	 35.983503	
5.3125	 35.792112	
5.375	 34.317154	
5.4375	 34.382962	
5.5	 34.097794	
5.5625	 33.983919	
5.625	 33.981765	
5.6875	 33.924628	
5.75	 33.630503	
5.8125	 33.645544	
5.875	 33.334404	
5.9375	 33.068657	
6	 33.043696	
6.0625	 32.967965	
6.125	 32.906536	
6.1875	 32.926557	
6.25	 32.734764	
6.3125	 32.542598	
6.375	 32.563070	
6.4375	 32.530407	
6.5	 32.296172	
6.5625	 32.321662	
6.625	 32.288764	
6.6875	 32.229091	
6.75	 32.238757	
6.8125	 32.231723	
6.875	 32.271542	
6.9375	 32.247455	
7	 32.265998	
7.0625	 32.133820	
7.125	 32.153560	
7.1875	 32.063264	
7.25	 32.078428	
7.3125	 32.083634	
7.375	 32.024348	
7.4375	 31.902515	
7.5	 31.955041	
7.5625	 31.879353	
7.625	 31.713584	
7.6875	 31.777403	
7.75	 31.764296	
7.8125	 31.597028	
7.875	 31.579977	
7.9375	 31.411116	
8	 31.259505	
8.0625	 31.292309	
8.125	 31.469484	
8.1875	 31.625992	
8.25	 31.685116	
8.3125	 31.613220	
8.375	 31.510094	
8.4375	 31.506767	
8.5	 31.500652	
8.5625	 31.508503	
8.625	 31.518026	
8.6875	 31.570951	
8.75	 31.646010	
8.8125	 31.646426	
8.875	 31.514268	
8.9375	 31.317889	
9	 31.299569	
9.0625	 31.371793	
9.125	 31.315745	
9.1875	 31.307707	
9.25	 31.351694	
9.3125	 31.451116	
9.375	 31.436254	
9.4375	 31.646031	
9.5	 35.820238	
9.5625	 35.827602	
9.625	 39.002502	
9.6875	 39.328857	
9.75	 39.432842	
9.8125	 39.557496	
9.875	 39.720176	
9.9375	 39.760002	
10	 39.551478	
10.0625	 39.392415	
